{"title":"The 68th Annual Primetime Emmy Awards 2016 720p HDTV 2CH x265","uid":15860275,"size":1039775984,"categoryP":"video","categoryS":"hd___tv_shows","magnet":"?xt=urn:btih:2caf70960284c6c595fef1ff07fdddfaac0c55e6&amp;dn=The+68th+Annual+Primetime+Emmy+Awards+2016+720p+HDTV+2CH+x265&amp;tr=udp%3A%2F%2Ftracker.leechers-paradise.org%3A6969&amp;tr=udp%3A%2F%2Fzer0day.ch%3A1337&amp;tr=udp%3A%2F%2Fopen.demonii.com%3A1337&amp;tr=udp%3A%2F%2Ftracker.coppersurfer.tk%3A6969&amp;tr=udp%3A%2F%2Fexodus.desync.com%3A6969","seeders":6,"leechers":5,"uploader":"nayhtut","files":1,"time":1474287709,"description":"[Screenshots Gallery Link]\r\n\r\n[http://postimg.org/gallery/1ji1jm5so]\r\n\r\n\r\nSource:The 68th Annual Primetime Emmy Awards 2016 720p HDTV x264-ALTEREGO(3.21GB)\r\n\r\n\r\nComplete name: The.68th.Annual.Primetime.Emmy.Awards.2016.720p.HDTV.HEVC.2CH.x265.mkv\r\nFormat                                   : Matroska\r\nFormat version                           : Version 4 / Version 2\r\nFile size                                : 992 MiB\r\nDuration                                 : 2h 7mn\r\nOverall bit rate                         : 1 091 Kbps\r\nWriting application                      : Lavf57.25.100\r\nWriting library                          : Lavf57.25.100\r\n\r\nVideo\r\n\r\nID                                       : 1\r\nFormat                                   : V_MPEGH/ISO/HEVC\r\nCodec ID                                 : V_MPEGH/ISO/HEVC\r\nDuration                                 : 2h 7mn\r\nBit rate                                 : 877 Kbps\r\nWidth                                    : 1 280 pixels\r\nHeight                                   : 720 pixels\r\nDisplay aspect ratio                     : 16:9\r\nFrame rate                               : 25.000 fps\r\nBits/(Pixel*Frame)                       : 0.038\r\nStream size                              : 797 MiB (80%)\r\nWriting library                          : Lavc57.48.101 libx265\r\nLanguage                                 : English\r\nDefault                                  : Yes\r\nForced                                   : No\r\nDURATION                                 : 02:07:06.227000000\r\n\r\nAudio\r\n\r\nID                                       : 2\r\nFormat                                   : AC-3\r\nFormat/Info                              : Audio Coding 3\r\nMode extension                           : CM (complete main)\r\nFormat settings, Endianness              : Big\r\nCodec ID                                 : A_AC3\r\nDuration                                 : 2h 7mn\r\nBit rate mode                            : Constant\r\nBit rate                                 : 192 Kbps\r\nChannel(s)                               : 2 channels\r\nChannel positions                        : Front: L R\r\nSampling rate                            : 48.0 KHz\r\nBit depth                                : 16 bits\r\nCompression mode                         : Lossy\r\nStream size                              : 175 MiB (18%)\r\nWriting library                          : Lavc57.24.102 ac3\r\nDefault                                  : Yes\r\nForced                                   : No\r\nDURATION                                 : 02:07:06.207000000","torrent":{"xt":"urn:btih:2caf70960284c6c595fef1ff07fdddfaac0c55e6","amp;dn":"The+68th+Annual+Primetime+Emmy+Awards+2016+720p+HDTV+2CH+x265","amp;tr":["udp%3A%2F%2Ftracker.leechers-paradise.org%3A6969","udp%3A%2F%2Fzer0day.ch%3A1337","udp%3A%2F%2Fopen.demonii.com%3A1337","udp%3A%2F%2Ftracker.coppersurfer.tk%3A6969","udp%3A%2F%2Fexodus.desync.com%3A6969"],"infoHash":"2caf70960284c6c595fef1ff07fdddfaac0c55e6","infoHashBuffer":{"type":"Buffer","data":[44,175,112,150,2,132,198,197,149,254,241,255,7,253,221,250,172,12,85,230]},"announce":[],"urlList":[]}}